<?xml version="1.0" encoding="utf-8"?>
<!-- Generator: Adobe Illustrator 26.1.0, SVG Export Plug-In . SVG Version: 6.00 Build 0)  -->
<svg version="1.1" id="Layer_1" xmlns="http://www.w3.org/2000/svg" xmlns:xlink="http://www.w3.org/1999/xlink" x="0px" y="0px"
	 viewBox="0 0 618.83 145.19" style="enable-background:new 0 0 618.83 145.19;" xml:space="preserve">
<style type="text/css">
	.st0{fill:#FCC60E;}
	.st1{fill:#FFFFFF;}
</style>
<g>
	<g>
		<path class="st0" d="M129.13,34.86c-0.31,0-0.62,0-0.93,0c-0.89,0.01-2.07,0.01-3.32,0.01l-1.96-0.01
			c-3.17,0.01-6.48,0.01-8.93,0.01c0.35,0.45,0.64,0.95,0.85,1.5c1.65,4.28-1.7,10.1-2.09,10.74c-1.51,2.47-9.2,15.05-15.79,25.93
			l-1.43,2.36l-6.16-11.71l6.22-10.69c3.13-5.38,5.38-9.27,6.28-10.78c9.72-16.41,2.62-28.7,2.54-28.83l-0.08-0.16
			c-0.05-0.12-3.14-6.78-7.39-8.55c-5.92-2.46-18.83,9.74-18.83,9.74S69.4,5.47,65.12,5.8c-9.93,0.77-14.94,6.79-15.19,7.12
			c-9.65,12.23-3.92,22.53-1.47,26.94c0.22,0.39,0.41,0.73,0.55,1.02l6.21,11.5L44.74,69.56c-5.06,7.93-6.13,15.1-6.14,15.17
			l-0.27,1.89l-1.74-2.66c-0.82-1.26-1.46-2.5-1.95-3.72C33,77.5,21.38,57.04,34.84,48.83c7-4.27,1.4-13.34-12.75-13.96H3.29
			c3.24,2.74,5.67,7.23,6.19,8.25l34.27,58.82c0.3-7.78,13.24-28.88,16.38-34.2l1.47-2.48l6.06,12.22L55.77,97.42
			c-0.08,0.13-7.54,13.08-0.34,24.57l2.67,4.66c0.23-5.14,1.98-11.93,4.43-16.88l0.04-0.11c0.29-0.73,1.01-2.52,2.6-5.11
			c1.69-2.7,7.99-13.21,8.05-13.32l0.68-1.13l17.69,35.68c-0.59-1.66-1.15-6.2,4.34-15.4c7.24-12.15,39.89-63.2,40.5-69.71
			C136.82,36.65,131.37,34.87,129.13,34.86z M77.11,39.02c5.35-10.3,3.86-18.39,2.5-22.29l-0.34-0.97l0.76-0.69
			c3.56-3.28,7.19-2.27,8.62-1.28c4.68,2.98,5.71,7.52,5.75,10.81c0.01,4.65-1.46,8.15-2.17,9.84c-0.1,0.24-0.18,0.43-0.23,0.57
			c-0.55,1.43-9.07,16.46-9.07,16.46l-6.19-11.71L77.11,39.02z M59.08,46.03l-1.47,2.42l-4.22-8.49
			c-6.6-12.48-1.83-21.04-1.27-21.97c1.47-2.6,3.32-4.21,5.53-4.81c2.95-0.8,5.38,0.57,5.48,0.63c9.46,6.67,4.68,17.48,3,20.63
			c-0.11,0.21-0.21,0.39-0.3,0.53l-0.07,0.12C65.7,35.19,65.05,36.23,59.08,46.03z M70.74,72.14l-6.06-12.21l9.45-15.46l6.18,11.78
			L70.74,72.14z M84.19,99.2l-7.1-14.31l9.61-16.41l6.12,11.67L84.19,99.2z"/>
	</g>
	<g>
		<path class="st1" d="M166.96,36.54c3.08-0.01,6.3,0.22,9.52,0.2c2.35-0.01,4.56-0.09,6.7-0.09c-0.04,0.07-0.09,0.15-0.13,0.22
			c-0.54,1.14-1.08,2.29-1.61,3.45c1.26,3.9,3.68,10.68,13.66,34.26c0.09-0.01,0.18-0.02,0.27-0.03c1.41-3.38,3.16-7.79,5.59-13.85
			c-3.32-7.85-6.52-14.85-8.86-20.07c-1.4-1.29-2.81-2.6-4.21-3.85c0.04-0.1,0.09-0.2,0.13-0.3c2.68-0.01,5.36,0.21,7.98,0.2
			c1.81,0,3.55-0.08,5.23-0.09c0.07,0.09,0.13,0.19,0.2,0.28c0.04,1.07,0.08,2.14,0.13,3.2c0.53,1.55,1.33,3.64,4.32,10.52
			c0.04,0,0.09,0,0.13,0c2.02-4.72,3.17-7.67,4.32-10.4c0.09-1.12,0.19-2.23,0.28-3.35c0.05-0.09,0.09-0.19,0.14-0.28
			c0.87,0,1.88,0.06,3.02,0.06c1.94,0,3.96-0.22,5.97-0.22c-0.05,0.09-0.09,0.18-0.14,0.27c-2.08,1.17-4.16,2.42-6.31,3.69
			c-1.01,1.89-2.97,5.77-6.34,12.65c1.13,2.76,4.12,9.39,8.3,19.1c0.04,0,0.09-0.01,0.13-0.01c2.84-7.43,7.58-21.12,11.17-31.68
			c-0.55-1.23-1.11-2.46-1.66-3.69c0.09-0.07,0.18-0.14,0.27-0.2c1.14,0,2.35,0.06,3.55,0.06c2.48-0.01,4.96-0.21,7.31-0.21
			c0,0.09,0,0.18,0,0.26c-1.88,1.12-3.83,2.33-5.78,3.55c-2.16,3.78-9.07,21.11-14.74,36.45c-0.81,2.28-2.69,5.44-3.9,7.04
			c-0.2,0.02-0.4,0.05-0.6,0.07c-1.26-2.56-4.98-11.51-8.9-20.65c-0.04,0-0.09,0.01-0.13,0.01c-2.43,5.71-4.58,10.42-6.66,15.55
			c-1.01,2.41-3.02,5.84-4.49,7.49c-0.16,0.02-0.31,0.04-0.47,0.06c-1.99-4.13-14.45-35.06-18.47-45.33
			c-1.67-1.36-3.35-2.73-5.03-4.05C166.87,36.75,166.92,36.64,166.96,36.54z"/>
		<path class="st1" d="M236,36.4c2.95,0,5.76,0.19,8.71,0.18c3.15-0.01,6.3-0.2,9.45-0.21c0,0.08,0,0.17,0,0.25
			c-1.66,0.95-3.32,1.92-4.97,2.89c-0.03,5.75-0.05,11.49-0.08,17.24c-0.05,10.7,0.12,18.19,0.25,19.01
			c1.89,0.81,3.79,1.61,5.68,2.41c-0.05,0.09-0.09,0.18-0.14,0.26c-3.49,0.29-7.04,0.4-10.52,0.7c-3.22,0.28-6.5,0.78-9.71,1.09
			c0.04-0.09,0.09-0.18,0.13-0.28c1.72-1.15,3.45-2.29,5.17-3.42c0.27-1,0.44-8.51,0.49-19.4c0.03-5.85,0.05-11.7,0.08-17.54
			c-1.54-0.97-3.07-1.94-4.61-2.92C235.95,36.57,235.98,36.49,236,36.4z"/>
		<path class="st1" d="M271.26,77.18c-2.21,0.16-5.03,0.18-7.51,0.37c-2.55,0.19-5.1,0.58-7.64,0.79c0.02-0.09,0.05-0.17,0.07-0.26
			c1.88-1.21,3.76-2.4,5.65-3.57c0.28-2.33,0.87-13.51,1.69-31.04c-4.13-5.07-4.53-5.35-7.07-6.66c0.05-0.08,0.09-0.17,0.14-0.25
			c3.91-0.13,7.82-0.26,11.73-0.39c0.2,0.49,1.06,1.79,2.73,3.75c8.27,9.45,15.07,16.01,24.62,25.17c0.04,0,0.09,0,0.13-0.01
			c0.01-1.54-0.1-21.77-0.35-25.74c-2.12-0.92-4.24-1.84-6.36-2.77c0.09-0.08,0.18-0.16,0.27-0.24c2.41,0,5.5,0.17,7.51,0.17
			c2.61,0,5.23-0.18,7.78-0.18c-0.07,0.08-0.13,0.16-0.2,0.23c-1.93,0.92-3.85,1.84-5.78,2.78c-0.08,3.18-0.89,20.01-1.01,30.93
			c-0.01,1.89-0.09,4.67-0.3,6.15c-0.16,0.07-0.31,0.14-0.47,0.2c-5.69-3.7-18.65-15.5-31.64-30.81c-0.04,0-0.09,0-0.13,0
			c-0.18,9.95-0.26,26.19,0.33,28.51c1.96,0.88,3.92,1.75,5.89,2.61C271.31,77.01,271.28,77.09,271.26,77.18z"/>
		<path class="st1" d="M340.23,36.45c1.48-0.34,4.16-0.73,5.43-0.85c0.04,0.08,0.09,0.15,0.13,0.22c-0.61,2.98-2.1,8.55-2.57,9.4
			c-0.16,0.09-0.31,0.19-0.47,0.28c-0.73-1.85-1.93-4.89-2.86-7.82c-3.51,0.21-7.02,0.43-10.53,0.64
			c-0.02,4.91-0.03,9.83-0.05,14.74c-0.05,15.26,0.28,17.01,0.34,18.2c2.53,0.77,5.05,1.54,7.58,2.32
			c-0.02,0.08-0.05,0.15-0.07,0.23c-3.96,0.12-7.86,0.08-11.82,0.23c-4.03,0.15-8.19,0.49-12.29,0.68c0.05-0.08,0.09-0.16,0.14-0.24
			c2.42-0.98,4.84-1.94,7.26-2.89c0.14-1.5,0.14-2.99,0.19-16.54c0.02-5.57,0.04-11.14,0.06-16.71c-3.24-0.2-6.48-0.4-9.72-0.61
			c-0.74,1.44-4.52,6.89-5.46,7.96c-0.13,0.06-0.27,0.12-0.4,0.18c-0.06-2.75,0.37-8.42,0.71-10.11c0.07-0.06,0.13-0.12,0.2-0.18
			c1.07,0,3.68,0.58,4.96,0.87C320.75,36.47,330.49,36.46,340.23,36.45z"/>
		<path class="st1" d="M348.65,36.28c3.08,0,6.24,0.17,9.32,0.16c5.72,0,11.44,0,17.16,0c0.87-0.17,4.09-0.61,6.03-0.78
			c0.04,0.06,0.09,0.11,0.13,0.17c0,1.28-1.41,7.55-1.75,8.27c-0.11,0.04-0.22,0.07-0.33,0.11c-1.01-1.22-3.49-5.33-4.22-6.44
			c-4.07,0.21-8.13,0.41-12.2,0.62c-0.01,4.9-0.01,9.81-0.02,14.71c5.64-0.04,12.48-0.39,16.31-0.79c0.07,0.13,0.13,0.26,0.2,0.39
			c-0.27,0.44-2.95,2.89-3.36,2.89c-0.67,0-10.47-0.51-13.15-0.49c-0.01,3.79-0.02,11.03,0.25,15.99c4.12,0.23,8.24,0.47,12.36,0.72
			c2.62-2.63,5.98-6.13,7.73-7.46c0.13-0.02,0.27-0.04,0.4-0.06c-0.07,0.72-1.75,7.44-2.42,8.83c-3.97-0.16-7.79-0.14-11.63-0.1
			c-3.7,0.04-7.39,0.08-11.09,0.14c-2.82,0.04-7.32,0.3-10.55,0.38c0.04-0.08,0.09-0.15,0.13-0.23c1.91-0.89,3.81-1.76,5.72-2.64
			c0.2-0.51,0.42-7.17,0.44-16.62c0.01-5.02,0.02-10.03,0.03-15.05c-1.88-0.84-3.75-1.67-5.63-2.51
			C348.56,36.43,348.61,36.36,348.65,36.28z"/>
		<path class="st1" d="M385.71,36.99c2.88-0.44,11-1.11,17.83-1.11c12.34-0.01,17.3,3.31,17.32,9.21c0.01,6.06-6.42,7.91-10.45,9.05
			c0,0.04,0,0.07,0,0.11c1.61,2.41,6.19,8.83,9.09,12.36c4.31,5.3,5.52,6.52,6.4,7.5c-0.02,0.07-0.04,0.15-0.07,0.22
			c-7.86-0.32-11.36-1.94-14.05-4.61c-2.83-2.73-6.86-8.35-10.43-13.76c0.04-0.06,0.09-0.11,0.13-0.17
			c6.17-1.63,10.06-3.89,10.05-9.58c-0.01-6.59-4.84-9.16-12.35-9.05c0.01,6.02,0.01,12.05,0.02,18.07
			c0.01,7.62,0.08,12.84,0.22,15.35c1.97,0.81,3.94,1.63,5.92,2.46c-0.07,0.07-0.13,0.15-0.2,0.22c-3.36-0.04-6.85-0.24-10.22-0.27
			c-3.23-0.02-6.45,0.13-9.68,0.13c0-0.07,0-0.15,0-0.22c1.61-0.76,3.23-1.51,4.84-2.27c0.13-2,0.47-8.1,0.46-15.38
			c0-5.57,0-11.14-0.01-16.71c-1.65-0.44-3.31-0.89-4.96-1.33C385.62,37.14,385.67,37.07,385.71,36.99z"/>
		<path class="st1" d="M458.85,36.48c1.47-0.35,4.15-0.75,5.43-0.87c0.05,0.08,0.09,0.16,0.14,0.23c-0.59,3.1-2.04,8.87-2.51,9.74
			c-0.16,0.09-0.31,0.19-0.47,0.28c-0.74-1.93-1.96-5.09-2.92-8.11c-3.51,0.2-7.01,0.41-10.52,0.61c0.02,4.95,0.04,9.91,0.05,14.86
			c0.06,15.38,0.4,17.17,0.47,18.38c2.53,0.96,5.07,1.92,7.6,2.91c-0.02,0.08-0.04,0.15-0.07,0.23c-3.96-0.18-7.86-0.51-11.82-0.66
			c-4.03-0.15-8.19-0.12-12.29-0.24c0.04-0.07,0.09-0.15,0.13-0.22c2.42-0.78,4.83-1.55,7.25-2.33c0.13-1.48,0.12-2.95,0.08-16.38
			c-0.02-5.52-0.04-11.04-0.05-16.56c-3.24-0.22-6.48-0.43-9.72-0.64c-0.73,1.41-4.48,6.64-5.41,7.64c-0.13,0.06-0.27,0.11-0.4,0.17
			c-0.07-2.64,0.31-8.09,0.65-9.73c0.07-0.06,0.13-0.11,0.2-0.17c1.07,0,3.69,0.56,4.96,0.85
			C439.36,36.46,449.11,36.47,458.85,36.48z"/>
		<path class="st1" d="M466.35,36.31c2.82,0,5.63,0.18,8.45,0.19c2.68,0,5.43-0.17,8.11-0.17c-0.02,0.08-0.04,0.16-0.07,0.24
			c-1.16,0.9-2.31,1.79-3.47,2.68c0.02,4.84,0.04,9.67,0.07,14.51c6.37,0.17,12.74,0.36,19.11,0.57c-0.02-4.99-0.05-9.97-0.07-14.96
			c-0.99-0.93-1.98-1.85-2.96-2.77c0.07-0.08,0.13-0.16,0.2-0.24c2.35,0,4.69,0.19,7.04,0.2c3.29,0.01,6.5-0.18,9.72-0.17
			c0,0.08,0,0.17,0,0.25c-1.78,0.94-3.57,1.88-5.35,2.8c0.03,5.65,0.05,11.3,0.08,16.95c0.03,7.06,0.29,17.71,0.56,18.54
			c1.75,1.04,3.49,2.1,5.24,3.17c0,0.08,0,0.17,0,0.25c-3.22-0.26-6.5-0.71-9.65-0.94c-2.75-0.21-5.5-0.22-8.25-0.41
			c0.04-0.08,0.09-0.16,0.13-0.24c1.09-0.82,2.18-1.65,3.27-2.48c0.24-6.26,0.07-12.18,0.05-18.09c-3.01,0.57-6.03,0.46-9.05,0.36
			c-3.35-0.11-6.71-0.22-10.06-0.32c0.02,4.72-0.09,10.26,0.15,16.96c1.21,0.92,2.42,1.85,3.63,2.79c-0.04,0.08-0.09,0.15-0.13,0.23
			c-2.68-0.17-5.23-0.5-7.92-0.65c-3.29-0.19-6.51-0.18-9.8-0.35c0.04-0.08,0.09-0.15,0.13-0.23c1.65-0.79,3.3-1.59,4.95-2.39
			c0.06-1.35,0.36-10.53,0.32-17.79c-0.02-5.17-0.05-10.34-0.07-15.51c-1.46-0.91-2.91-1.82-4.37-2.72
			C466.35,36.47,466.35,36.39,466.35,36.31z"/>
		<path class="st1" d="M514.21,36.37c3.22,0,6.44,0.2,9.72,0.21c2.68,0.01,5.36-0.19,8.04-0.18c-0.04,0.09-0.09,0.18-0.13,0.26
			c-1.29,0.98-2.58,1.96-3.88,2.92c-0.1,7.81-0.05,19.08-0.02,25.65c0.01,3.13,0.56,5.96,1.78,8.01c1.55,2.73,4.98,5.13,10.2,5.63
			c4.89,0.47,8.43-1.14,10.42-3.97c1.6-2.32,2.39-5.97,2.3-11.06c-0.1-9.76-0.2-17.25-0.49-24.05c-1.7-1.05-3.4-2.08-5.11-3.1
			c0.04-0.09,0.09-0.18,0.13-0.27c2.01,0,4.02,0.21,6.1,0.22c2.61,0.01,5.36-0.2,8.04-0.19c0.02,0.09,0.05,0.19,0.07,0.28
			c-1.94,1.05-3.88,2.08-5.82,3.1c-0.2,1.17-0.32,3.96-0.92,24.22c-0.12,4.48-0.64,8.8-3.24,12.33c-2.93,3.98-8.27,5.76-14.17,5.17
			c-6.16-0.61-12.2-2.95-15.71-8.54c-1.62-2.56-2.24-5.67-2.26-9.57c-0.04-8.64-0.07-15.93-0.25-23.93
			c-1.66-0.97-3.32-1.93-4.98-2.89C514.12,36.54,514.16,36.45,514.21,36.37z"/>
		<path class="st1" d="M562.27,37.36c2.88-0.54,10.99-1.39,17.83-1.39c12.34-0.03,17.3,4.5,17.3,12.6c0,8.32-6.42,10.53-10.43,11.83
			c0,0.05,0,0.1,0,0.15c1.61,3.28,6.17,12.24,9.04,17.33c4.28,7.6,7.91,10.66,9.38,11.77c-0.02,0.1-0.04,0.2-0.07,0.3
			c-7.8-1.26-14.31-4.72-16.99-8.56c-2.81-3.94-6.83-11.76-10.39-19.07c0.04-0.07,0.09-0.14,0.13-0.21
			c6.15-1.78,10.03-4.62,10.02-12.28c-0.01-8.87-4.84-12.33-12.35-12.2c0.02,7.87,0.03,15.73,0.05,23.6
			c0.02,9.95,0.1,16.78,0.24,20.06c1.96,1.26,3.92,2.54,5.88,3.85c-0.07,0.09-0.13,0.18-0.2,0.27c-3.34-0.42-6.82-1.06-10.16-1.45
			c-3.21-0.38-6.42-0.54-9.63-0.9c0-0.09,0-0.19,0-0.28c1.6-0.78,3.2-1.57,4.81-2.37c0.13-2.54,0.44-10.33,0.41-19.64
			c-0.02-7.13-0.04-14.27-0.06-21.4c-1.66-0.58-3.31-1.16-4.97-1.73C562.18,37.55,562.22,37.46,562.27,37.36z"/>
	</g>
	<g>
		<path class="st1" d="M209.95,112.38v18.55h-2.4v-13.2c0-0.2,0.01-0.41,0.02-0.63c0.01-0.22,0.03-0.45,0.05-0.68l-6.18,11.33
			c-0.22,0.42-0.55,0.63-0.99,0.63h-0.39c-0.45,0-0.78-0.21-0.98-0.63l-6.29-11.37c0.05,0.48,0.08,0.93,0.08,1.36v13.2h-2.42v-18.55
			h2.04c0.24,0,0.43,0.02,0.56,0.07c0.13,0.05,0.26,0.18,0.38,0.39l6.2,11.11c0.12,0.22,0.23,0.46,0.34,0.71
			c0.1,0.25,0.2,0.5,0.3,0.75c0.18-0.51,0.39-1,0.63-1.47l6.09-11.1c0.11-0.22,0.23-0.35,0.37-0.39c0.13-0.05,0.32-0.07,0.56-0.07
			H209.95z"/>
		<path class="st1" d="M223.19,128.72c0.74,0,1.4-0.13,1.99-0.37c0.59-0.25,1.08-0.6,1.49-1.05c0.4-0.45,0.71-0.99,0.93-1.61
			c0.22-0.62,0.32-1.32,0.32-2.07v-11.23h2.74v11.23c0,1.08-0.17,2.09-0.52,3.01c-0.34,0.92-0.84,1.72-1.49,2.39
			c-0.65,0.67-1.43,1.2-2.35,1.58c-0.92,0.38-1.96,0.57-3.11,0.57c-1.15,0-2.19-0.19-3.11-0.57c-0.92-0.38-1.71-0.9-2.35-1.58
			c-0.65-0.67-1.14-1.47-1.49-2.39c-0.34-0.92-0.52-1.92-0.52-3.01v-11.23h2.75v11.21c0,0.76,0.11,1.45,0.32,2.08
			c0.21,0.63,0.52,1.17,0.92,1.62c0.41,0.45,0.9,0.8,1.49,1.05C221.78,128.6,222.45,128.72,223.19,128.72z"/>
		<path class="st1" d="M246.03,115.4c-0.09,0.15-0.18,0.25-0.27,0.32c-0.09,0.07-0.22,0.1-0.36,0.1c-0.16,0-0.33-0.07-0.53-0.21
			c-0.2-0.14-0.45-0.3-0.74-0.48c-0.3-0.18-0.65-0.34-1.07-0.48c-0.41-0.14-0.91-0.21-1.49-0.21c-0.54,0-1.02,0.07-1.43,0.21
			c-0.41,0.14-0.75,0.34-1.03,0.58c-0.28,0.25-0.48,0.53-0.63,0.87c-0.14,0.33-0.21,0.69-0.21,1.08c0,0.5,0.13,0.91,0.38,1.24
			c0.25,0.33,0.59,0.61,1,0.84c0.41,0.23,0.88,0.44,1.41,0.61c0.53,0.17,1.06,0.35,1.61,0.54c0.55,0.19,1.09,0.4,1.61,0.64
			c0.53,0.24,0.99,0.54,1.41,0.91c0.41,0.37,0.75,0.81,1,1.34c0.25,0.53,0.38,1.18,0.38,1.94c0,0.82-0.14,1.58-0.42,2.3
			c-0.28,0.71-0.69,1.34-1.22,1.87c-0.53,0.53-1.19,0.95-1.97,1.26c-0.78,0.31-1.66,0.46-2.66,0.46c-0.59,0-1.17-0.06-1.73-0.17
			c-0.56-0.12-1.09-0.28-1.59-0.49c-0.5-0.21-0.97-0.47-1.4-0.76c-0.44-0.3-0.83-0.63-1.17-1l0.79-1.32
			c0.08-0.1,0.17-0.19,0.28-0.26c0.11-0.07,0.23-0.1,0.37-0.1c0.18,0,0.39,0.09,0.63,0.28c0.24,0.19,0.53,0.4,0.88,0.63
			c0.35,0.23,0.77,0.44,1.25,0.63c0.49,0.19,1.08,0.28,1.78,0.28c0.57,0,1.08-0.08,1.52-0.23c0.45-0.15,0.82-0.37,1.13-0.65
			c0.31-0.28,0.54-0.62,0.7-1.01c0.16-0.4,0.25-0.84,0.25-1.32c0-0.54-0.12-0.99-0.37-1.33c-0.25-0.34-0.58-0.63-0.99-0.87
			c-0.41-0.23-0.88-0.43-1.41-0.59c-0.53-0.16-1.06-0.33-1.61-0.51c-0.55-0.18-1.09-0.38-1.61-0.61c-0.53-0.23-0.99-0.54-1.41-0.91
			c-0.41-0.37-0.75-0.84-0.99-1.41c-0.25-0.56-0.38-1.26-0.38-2.09c0-0.66,0.13-1.3,0.39-1.92c0.26-0.62,0.63-1.17,1.13-1.65
			c0.49-0.48,1.1-0.86,1.83-1.15c0.72-0.29,1.55-0.43,2.48-0.43c1.04,0,2,0.17,2.87,0.5c0.87,0.33,1.63,0.81,2.28,1.43L246.03,115.4
			z"/>
		<path class="st1" d="M263.42,128.7l-0.01,2.24h-11.5v-18.55h11.5v2.24h-8.73v5.88h7.03v2.16h-7.03v6.05H263.42z"/>
		<path class="st1" d="M275.47,128.72c0.74,0,1.4-0.13,1.99-0.37c0.59-0.25,1.08-0.6,1.49-1.05c0.4-0.45,0.71-0.99,0.93-1.61
			c0.22-0.62,0.32-1.32,0.32-2.07v-11.23h2.74v11.23c0,1.08-0.17,2.09-0.52,3.01c-0.34,0.92-0.84,1.72-1.49,2.39
			c-0.65,0.67-1.43,1.2-2.35,1.58c-0.92,0.38-1.96,0.57-3.11,0.57c-1.15,0-2.19-0.19-3.11-0.57c-0.92-0.38-1.71-0.9-2.35-1.58
			c-0.65-0.67-1.14-1.47-1.49-2.39c-0.34-0.92-0.52-1.92-0.52-3.01v-11.23h2.75v11.21c0,0.76,0.11,1.45,0.32,2.08
			c0.21,0.63,0.52,1.17,0.92,1.62c0.4,0.45,0.9,0.8,1.49,1.05C274.07,128.6,274.73,128.72,275.47,128.72z"/>
		<path class="st1" d="M308.22,112.38v18.55h-2.4v-13.2c0-0.2,0.01-0.41,0.02-0.63c0.01-0.22,0.03-0.45,0.05-0.68l-6.18,11.33
			c-0.22,0.42-0.55,0.63-0.99,0.63h-0.39c-0.45,0-0.78-0.21-0.98-0.63l-6.29-11.37c0.05,0.48,0.08,0.93,0.08,1.36v13.2h-2.42v-18.55
			h2.04c0.24,0,0.43,0.02,0.56,0.07c0.13,0.05,0.26,0.18,0.38,0.39l6.2,11.11c0.12,0.22,0.23,0.46,0.34,0.71
			c0.1,0.25,0.2,0.5,0.3,0.75c0.18-0.51,0.39-1,0.63-1.47l6.08-11.1c0.11-0.22,0.23-0.35,0.37-0.39c0.13-0.05,0.32-0.07,0.56-0.07
			H308.22z"/>
		<path class="st1" d="M314.85,130.93c-0.23,0-0.45-0.04-0.64-0.13c-0.19-0.09-0.36-0.2-0.5-0.36c-0.14-0.15-0.25-0.33-0.33-0.54
			c-0.08-0.21-0.12-0.43-0.12-0.67c0-0.21,0.04-0.4,0.12-0.59c0.08-0.19,0.19-0.35,0.33-0.48c0.14-0.14,0.31-0.25,0.51-0.33
			c0.2-0.08,0.42-0.12,0.66-0.12c0.28,0,0.52,0.05,0.73,0.15c0.21,0.1,0.39,0.24,0.53,0.41c0.14,0.18,0.25,0.38,0.32,0.61
			c0.07,0.23,0.1,0.48,0.1,0.75c0,0.39-0.06,0.8-0.17,1.23c-0.11,0.43-0.28,0.86-0.49,1.28c-0.22,0.42-0.48,0.83-0.8,1.23
			c-0.32,0.4-0.68,0.76-1.09,1.1l-0.43-0.4c-0.13-0.12-0.19-0.25-0.19-0.4c0-0.06,0.02-0.12,0.06-0.19
			c0.04-0.06,0.09-0.13,0.15-0.19c0.09-0.09,0.2-0.22,0.34-0.37c0.14-0.16,0.27-0.33,0.41-0.54c0.13-0.2,0.26-0.43,0.37-0.67
			c0.12-0.25,0.2-0.51,0.25-0.78H314.85z"/>
		<path class="st1" d="M344.66,121.9v7.24c-0.94,0.67-1.94,1.17-3,1.5c-1.06,0.33-2.21,0.5-3.46,0.5c-1.5,0-2.85-0.23-4.06-0.7
			c-1.21-0.47-2.24-1.12-3.09-1.95c-0.85-0.84-1.51-1.83-1.97-3c-0.46-1.16-0.69-2.44-0.69-3.84c0-1.4,0.22-2.69,0.67-3.86
			c0.44-1.17,1.08-2.17,1.91-3c0.83-0.83,1.83-1.48,3-1.94c1.18-0.46,2.5-0.69,3.96-0.69c0.74,0,1.43,0.06,2.06,0.17
			c0.63,0.11,1.22,0.27,1.76,0.48c0.54,0.21,1.04,0.46,1.5,0.74c0.46,0.29,0.89,0.61,1.29,0.98l-0.79,1.24
			c-0.12,0.2-0.28,0.32-0.48,0.37c-0.2,0.05-0.41,0-0.65-0.14c-0.22-0.13-0.47-0.28-0.74-0.45c-0.27-0.17-0.59-0.33-0.97-0.48
			c-0.37-0.15-0.81-0.27-1.31-0.37c-0.5-0.1-1.09-0.16-1.77-0.16c-1.02,0-1.93,0.17-2.75,0.5c-0.82,0.33-1.52,0.81-2.09,1.43
			c-0.58,0.62-1.02,1.37-1.33,2.24c-0.31,0.87-0.47,1.85-0.47,2.94c0,1.14,0.16,2.16,0.49,3.06c0.33,0.9,0.79,1.66,1.39,2.29
			c0.6,0.62,1.33,1.1,2.18,1.43c0.86,0.33,1.82,0.49,2.87,0.49c0.41,0,0.8-0.02,1.16-0.07c0.36-0.05,0.7-0.11,1.03-0.2
			c0.33-0.09,0.64-0.19,0.95-0.32c0.31-0.13,0.61-0.27,0.91-0.43v-3.89h-2.74c-0.17,0-0.31-0.05-0.42-0.16
			c-0.11-0.1-0.16-0.23-0.16-0.39v-1.56H344.66z"/>
		<path class="st1" d="M364.91,130.93h-2.12c-0.24,0-0.44-0.06-0.59-0.18c-0.15-0.12-0.27-0.28-0.34-0.47l-1.64-4.3h-8.18l-1.64,4.3
			c-0.06,0.16-0.17,0.31-0.34,0.45c-0.16,0.13-0.36,0.2-0.59,0.2h-2.12l7.39-18.55h2.78L364.91,130.93z M359.47,124.02l-2.75-7.2
			c-0.2-0.49-0.4-1.11-0.59-1.86c-0.09,0.37-0.19,0.71-0.29,1.03c-0.1,0.32-0.2,0.6-0.29,0.85l-2.74,7.17H359.47z"/>
		<path class="st1" d="M382.56,130.93h-2.45c-0.49,0-0.85-0.19-1.07-0.58l-4.59-6.43c-0.15-0.22-0.31-0.37-0.48-0.46
			c-0.17-0.09-0.43-0.14-0.78-0.14h-1.8v7.61h-2.75v-18.55H374c1.2,0,2.23,0.12,3.09,0.37c0.87,0.25,1.58,0.59,2.14,1.05
			c0.56,0.45,0.98,1,1.25,1.63c0.27,0.64,0.41,1.35,0.41,2.15c0,0.65-0.1,1.25-0.3,1.82c-0.2,0.57-0.49,1.08-0.87,1.53
			c-0.38,0.45-0.85,0.84-1.4,1.17c-0.55,0.33-1.18,0.58-1.87,0.75c0.34,0.21,0.64,0.5,0.89,0.87L382.56,130.93z M373.91,121.32
			c0.71,0,1.33-0.09,1.87-0.26c0.54-0.17,0.99-0.42,1.35-0.73c0.36-0.31,0.63-0.69,0.81-1.12c0.18-0.43,0.27-0.91,0.27-1.44
			c0-1.07-0.35-1.87-1.05-2.42c-0.7-0.54-1.76-0.81-3.16-0.81h-2.6v6.78H373.91z"/>
		<path class="st1" d="M402.55,121.66c0,1.39-0.22,2.65-0.67,3.79c-0.44,1.14-1.07,2.11-1.88,2.93c-0.81,0.81-1.78,1.45-2.91,1.89
			c-1.13,0.45-2.38,0.67-3.76,0.67h-6.98v-18.55h6.98c1.38,0,2.63,0.22,3.76,0.67c1.13,0.45,2.1,1.08,2.91,1.89
			c0.81,0.81,1.44,1.79,1.88,2.93C402.33,119.02,402.55,120.28,402.55,121.66z M399.73,121.66c0-1.1-0.15-2.09-0.45-2.96
			c-0.3-0.87-0.73-1.61-1.29-2.22c-0.56-0.61-1.23-1.07-2.02-1.39c-0.79-0.32-1.67-0.48-2.64-0.48h-4.21v14.11h4.21
			c0.97,0,1.85-0.16,2.64-0.48c0.79-0.32,1.46-0.78,2.02-1.39c0.56-0.61,0.98-1.35,1.29-2.22
			C399.58,123.76,399.73,122.77,399.73,121.66z"/>
		<path class="st1" d="M418.94,128.7l-0.01,2.24h-11.5v-18.55h11.5v2.24h-8.73v5.88h7.03v2.16h-7.03v6.05H418.94z"/>
		<path class="st1" d="M438.96,112.38v18.55h-1.4c-0.22,0-0.39-0.04-0.54-0.12c-0.14-0.08-0.29-0.2-0.43-0.37l-10.48-13.55
			c0.02,0.23,0.03,0.46,0.05,0.68c0.01,0.22,0.02,0.43,0.02,0.63v12.73h-2.42v-18.55h1.42c0.24,0,0.42,0.03,0.54,0.08
			c0.12,0.06,0.25,0.18,0.4,0.38l10.5,13.57c-0.03-0.25-0.05-0.49-0.06-0.73c-0.01-0.24-0.02-0.46-0.02-0.67v-12.64H438.96z"/>
		<path class="st1" d="M468.9,130.93h-2.45c-0.28,0-0.49-0.03-0.65-0.1c-0.16-0.06-0.34-0.2-0.54-0.41l-1.72-1.73
			c-0.81,0.76-1.74,1.35-2.78,1.79c-1.05,0.44-2.19,0.65-3.44,0.65c-0.7,0-1.38-0.12-2.05-0.35c-0.67-0.24-1.26-0.58-1.79-1.03
			c-0.53-0.45-0.95-0.99-1.27-1.63c-0.32-0.64-0.48-1.37-0.48-2.18c0-0.59,0.1-1.16,0.3-1.7c0.2-0.54,0.47-1.03,0.83-1.49
			c0.35-0.45,0.77-0.86,1.26-1.22c0.49-0.36,1.01-0.67,1.58-0.93c-0.51-0.66-0.88-1.31-1.12-1.93c-0.24-0.62-0.35-1.26-0.35-1.92
			c0-0.63,0.12-1.22,0.35-1.78c0.23-0.56,0.56-1.05,0.99-1.46c0.43-0.41,0.96-0.74,1.58-0.98c0.62-0.24,1.33-0.36,2.11-0.36
			c0.7,0,1.33,0.11,1.91,0.33c0.57,0.22,1.07,0.51,1.48,0.89c0.41,0.37,0.74,0.8,0.98,1.28c0.24,0.48,0.37,0.99,0.41,1.51
			l-1.58,0.32c-0.32,0.07-0.55-0.07-0.7-0.43c-0.07-0.22-0.17-0.45-0.29-0.68c-0.12-0.23-0.29-0.44-0.49-0.63
			c-0.2-0.18-0.45-0.34-0.73-0.46c-0.28-0.12-0.61-0.18-0.98-0.18c-0.41,0-0.79,0.07-1.12,0.21c-0.33,0.14-0.61,0.32-0.85,0.56
			c-0.23,0.24-0.41,0.51-0.54,0.83c-0.13,0.32-0.19,0.66-0.19,1.02c0,0.28,0.03,0.56,0.1,0.83c0.07,0.27,0.17,0.54,0.32,0.81
			c0.14,0.27,0.33,0.55,0.55,0.83c0.22,0.28,0.49,0.58,0.8,0.9l5.23,5.36c0.32-0.57,0.57-1.17,0.76-1.8
			c0.19-0.63,0.31-1.26,0.37-1.89c0.02-0.17,0.07-0.31,0.16-0.41c0.09-0.1,0.22-0.16,0.39-0.16h1.56c-0.01,1.03-0.17,2.04-0.48,3.02
			c-0.31,0.98-0.75,1.88-1.32,2.72L468.9,130.93z M456.82,121.91c-0.85,0.47-1.49,1.04-1.91,1.7c-0.42,0.66-0.63,1.37-0.63,2.13
			c0,0.53,0.1,1.01,0.29,1.43c0.19,0.42,0.45,0.77,0.78,1.05c0.32,0.28,0.69,0.5,1.11,0.65c0.42,0.15,0.85,0.22,1.29,0.22
			c0.91,0,1.74-0.16,2.47-0.48c0.73-0.32,1.38-0.76,1.95-1.3L456.82,121.91z"/>
		<path class="st1" d="M491.37,128.62v2.31h-10.62v-18.55h2.75v16.24H491.37z"/>
		<path class="st1" d="M498.24,130.93h-2.76v-18.55h2.76V130.93z"/>
		<path class="st1" d="M510.28,112.38c1.16,0,2.16,0.11,2.99,0.34c0.83,0.22,1.51,0.55,2.05,0.97c0.53,0.42,0.93,0.93,1.18,1.53
			c0.25,0.6,0.38,1.28,0.38,2.03c0,0.45-0.07,0.88-0.21,1.29c-0.14,0.41-0.35,0.8-0.63,1.16c-0.28,0.36-0.64,0.68-1.07,0.96
			c-0.43,0.28-0.94,0.52-1.52,0.71c2.7,0.53,4.04,1.94,4.04,4.22c0,0.79-0.15,1.51-0.44,2.16c-0.29,0.65-0.72,1.21-1.28,1.69
			c-0.56,0.47-1.25,0.84-2.07,1.1c-0.82,0.26-1.75,0.39-2.79,0.39h-6.68v-18.55H510.28z M506.99,114.54v6.07h3.17
			c1.35,0,2.36-0.27,3.02-0.82c0.66-0.55,0.99-1.29,0.99-2.22c0-1.06-0.31-1.83-0.94-2.31c-0.63-0.48-1.61-0.72-2.93-0.72H506.99z
			 M510.86,128.75c0.7,0,1.29-0.08,1.79-0.25c0.5-0.16,0.9-0.39,1.21-0.67c0.31-0.28,0.54-0.62,0.69-1.01
			c0.15-0.39,0.22-0.82,0.22-1.29c0-0.92-0.32-1.65-0.96-2.18c-0.64-0.53-1.62-0.79-2.96-0.79h-3.88v6.19H510.86z"/>
		<path class="st1" d="M536.35,130.93h-2.45c-0.49,0-0.85-0.19-1.07-0.58l-4.59-6.43c-0.15-0.22-0.31-0.37-0.48-0.46
			c-0.17-0.09-0.43-0.14-0.78-0.14h-1.8v7.61h-2.75v-18.55h5.35c1.2,0,2.23,0.12,3.09,0.37c0.87,0.25,1.58,0.59,2.14,1.05
			c0.56,0.45,0.98,1,1.25,1.63c0.27,0.64,0.41,1.35,0.41,2.15c0,0.65-0.1,1.25-0.3,1.82c-0.2,0.57-0.49,1.08-0.87,1.53
			c-0.38,0.45-0.85,0.84-1.4,1.17c-0.55,0.33-1.18,0.58-1.87,0.75c0.34,0.21,0.64,0.5,0.89,0.87L536.35,130.93z M527.7,121.32
			c0.71,0,1.33-0.09,1.87-0.26c0.54-0.17,0.99-0.42,1.35-0.73c0.36-0.31,0.63-0.69,0.81-1.12c0.18-0.43,0.27-0.91,0.27-1.44
			c0-1.07-0.35-1.87-1.05-2.42c-0.7-0.54-1.76-0.81-3.16-0.81h-2.6v6.78H527.7z"/>
		<path class="st1" d="M555.45,130.93h-2.12c-0.24,0-0.44-0.06-0.59-0.18c-0.16-0.12-0.27-0.28-0.34-0.47l-1.64-4.3h-8.18l-1.64,4.3
			c-0.06,0.16-0.17,0.31-0.34,0.45c-0.16,0.13-0.36,0.2-0.59,0.2h-2.12l7.39-18.55h2.78L555.45,130.93z M550.01,124.02l-2.75-7.2
			c-0.2-0.49-0.4-1.11-0.59-1.86c-0.09,0.37-0.19,0.71-0.29,1.03c-0.1,0.32-0.2,0.6-0.29,0.85l-2.74,7.17H550.01z"/>
		<path class="st1" d="M573.1,130.93h-2.45c-0.49,0-0.85-0.19-1.07-0.58l-4.59-6.43c-0.15-0.22-0.31-0.37-0.48-0.46
			c-0.17-0.09-0.43-0.14-0.78-0.14h-1.8v7.61h-2.75v-18.55h5.35c1.2,0,2.23,0.12,3.09,0.37c0.87,0.25,1.58,0.59,2.14,1.05
			c0.56,0.45,0.98,1,1.25,1.63c0.27,0.64,0.41,1.35,0.41,2.15c0,0.65-0.1,1.25-0.3,1.82c-0.2,0.57-0.49,1.08-0.87,1.53
			c-0.38,0.45-0.85,0.84-1.4,1.17c-0.55,0.33-1.18,0.58-1.87,0.75c0.34,0.21,0.64,0.5,0.89,0.87L573.1,130.93z M564.44,121.32
			c0.71,0,1.33-0.09,1.87-0.26c0.54-0.17,0.99-0.42,1.35-0.73c0.36-0.31,0.63-0.69,0.81-1.12c0.18-0.43,0.27-0.91,0.27-1.44
			c0-1.07-0.35-1.87-1.05-2.42c-0.7-0.54-1.76-0.81-3.16-0.81h-2.6v6.78H564.44z"/>
		<path class="st1" d="M583.37,123.59v7.34h-2.74v-7.34l-6.8-11.21h2.42c0.24,0,0.43,0.06,0.58,0.17c0.15,0.12,0.27,0.27,0.36,0.46
			l4.03,6.94c0.16,0.32,0.31,0.62,0.45,0.9c0.13,0.28,0.25,0.56,0.36,0.84c0.09-0.28,0.2-0.56,0.33-0.84
			c0.12-0.28,0.27-0.59,0.43-0.9l4.02-6.94c0.09-0.16,0.2-0.3,0.36-0.43c0.15-0.13,0.34-0.2,0.57-0.2h2.43L583.37,123.59z"/>
	</g>
</g>
</svg>
